<svg xmlns="http://www.w3.org/2000/svg" viewBox="0 0 160 160" role="img" aria-label="Moon over village">
  <defs>
    <linearGradient id="sky" x1="0" x2="1" y1="0" y2="1">
      <stop offset="0" stop-color="#101010"/>
      <stop offset="1" stop-color="#3b1117"/>
    </linearGradient>
  </defs>
  <rect width="160" height="160" rx="18" fill="url(#sky)"/>
  <circle cx="105" cy="48" r="29" fill="#f5f0d8"/>
  <circle cx="94" cy="40" r="28" fill="#101010" opacity=".82"/>
  <path d="M20 116h120v24H20z" fill="#1c1c1c"/>
  <path d="M28 116V89l18-14 18 14v27zm46 0V82l22-17 22 17v34z" fill="#2d2d2d"/>
  <path d="M42 116V98h9v18zm47 0V94h12v22z" fill="#f2a900"/>
  <path d="M45 42c10 4 18 13 23 28 7-16 18-24 32-26-9 12-14 26-15 42-12-10-23-10-35 0 1-17-1-31-5-44z" fill="#d62828"/>
</svg>
